<?xml version="1.0" standalone="no"?>
<!DOCTYPE svg PUBLIC "-//W3C//DTD SVG 20010904//EN"
 "http://www.w3.org/TR/2001/REC-SVG-20010904/DTD/svg10.dtd">
<svg version="1.0" xmlns="http://www.w3.org/2000/svg"
 width="260.000000pt" height="260.000000pt" viewBox="0 0 260.000000 260.000000"
 preserveAspectRatio="xMidYMid meet">
<metadata>
Created by potrace 1.14, written by Peter Selinger 2001-2017
</metadata>
<g transform="translate(0.000000,260.000000) scale(0.100000,-0.100000)"
fill="#000000" stroke="none">
<path d="M1830 2157 c0 -4 9 -26 21 -48 20 -40 20 -69 0 -69 -6 0 -26 24 -45
54 l-35 54 -54 -12 c-29 -7 -59 -16 -67 -21 -7 -5 -11 -4 -7 1 3 5 -1 17 -8
27 -12 17 -15 16 -44 -15 -17 -18 -31 -36 -31 -40 0 -3 38 -41 85 -84 47 -42
85 -81 85 -86 0 -15 -22 -8 -79 26 -31 19 -78 44 -103 55 l-47 20 -22 -47
c-13 -26 -27 -50 -32 -53 -5 -4 -28 -1 -51 6 -171 54 -365 40 -538 -38 -172
-77 -330 -245 -395 -420 -17 -46 -46 -67 -91 -67 -38 0 -160 -72 -215 -127
-153 -153 -189 -381 -91 -575 36 -71 132 -169 202 -206 122 -65 94 -63 1035
-60 803 3 855 4 901 22 181 70 300 210 336 399 11 55 11 79 1 135 -19 96 -55
178 -106 244 l-46 57 37 41 c36 40 36 41 18 61 -10 11 -49 45 -86 76 -97 79
-89 98 18 43 32 -16 67 -30 76 -30 9 0 20 -4 23 -10 12 -19 34 -10 54 24 20
31 29 68 14 53 -9 -9 -43 23 -43 40 0 8 -4 11 -10 8 -6 -4 -10 10 -10 33 0 38
-2 40 -37 46 -21 4 -53 12 -72 18 -32 10 -33 12 -16 24 10 8 43 14 72 14 47 0
52 2 45 18 -30 60 -42 78 -61 88 -12 6 -18 13 -15 17 3 3 -4 3 -17 0 -18 -5
-21 -3 -16 10 5 14 1 15 -23 10 -20 -3 -30 -1 -30 6 0 7 -4 10 -8 7 -13 -8
-32 9 -37 34 -5 26 -21 40 -47 40 -9 0 -20 5 -23 10 -3 6 -14 10 -23 10 -9 1
-35 18 -56 40 -36 36 -41 38 -52 22 -9 -12 -13 -13 -14 -4 0 7 -5 10 -11 7 -6
-4 -13 2 -16 14 -4 15 -9 18 -17 12 -18 -15 -43 11 -58 58 l-13 42 -52 -3
c-29 -2 -53 -6 -53 -11z"/>
</g>
</svg>
